<svg xmlns="http://www.w3.org/2000/svg" width="506" height="256" viewBox="0 0 506 256"><defs><mask id="nakhb" width="2" height="2" x="-1" y="-1"><path fill="#fff" d="M32 18h442v192H32z"/><path d="M32 113.406V210h348.682C432.278 210 474 167.245 474 114.594V18H125.318C73.818 18 32 60.755 32 113.406z"/></mask><filter id="nakha" width="542" height="306" x="-18" y="-32" filterUnits="userSpaceOnUse"><feOffset dy="14" in="SourceGraphic" result="FeOffset1031Out"/><feGaussianBlur in="FeOffset1031Out" result="FeGaussianBlur1032Out" stdDeviation="16 16"/></filter></defs><g><g><g/><g><g><g filter="url(#nakha)"><path fill="none" d="M32 113.406V210h348.682C432.278 210 474 167.245 474 114.594V18H125.318C73.818 18 32 60.755 32 113.406z" mask="url(&quot;#nakhb&quot;)"/><path fill="#83838d" fill-opacity=".2" d="M32 113.406V210h348.682C432.278 210 474 167.245 474 114.594V18H125.318C73.818 18 32 60.755 32 113.406z"/></g><path fill="#fff" d="M32 113.406V210h348.682C432.278 210 474 167.245 474 114.594V18H125.318C73.818 18 32 60.755 32 113.406z"/></g><g><g><g><path fill="#009640" d="M135.484 185.156c-1.162 0-1.742-.396-1.936-1.187l-1.162-3.662h-9.293l-1.452 4.85h-6.97c-1.064 0-1.548-.595-1.258-1.584l9.97-28.305c1.743-.792 3.68-1.188 5.615-1.188 2.033 0 2.71.495 3.388 2.276l10.165 28.8zm-10.455-11.282h5.518l-2.71-9.204z"/></g><g><path fill="#009640" d="M143.13 153.393c1.549-.396 3.388-.693 5.808-.693 1.355 0 2.13.594 2.13 1.781v21.576c0 2.177.774 3.068 2.323 3.068.871 0 1.84-.198 2.517-.495.58.792.968 2.276.968 3.464 0 1.484-2.517 3.365-6.099 3.365-4.646 0-7.647-3.167-7.647-9.303z"/></g><g><path fill="#009640" d="M159.78 168.238c-.58-.89-.87-1.98-.87-2.87 0-1.88 4.259-4.256 9.292-4.256 6.583 0 9.971 3.266 9.971 9.6v6.829c0 1.187.484 1.682 1.258 1.682h1.162c.29.792.387 1.683.387 2.672 0 1.683-1.936 3.563-4.84 3.563-1.936 0-3.872-.99-5.034-2.87-1.258 1.98-3.388 3.167-6.001 3.167-4.84 0-8.035-3.365-8.035-7.72 0-4.65 3.582-7.52 8.809-7.52 1.646 0 3.388.296 4.163.692v-1.287c0-1.781-1.162-3.068-4.26-3.068-1.839-.099-4.065.495-6.002 1.386zm8.81-12.866c1.355 0 1.936-.89 1.936-3.563h3.484c1.065 0 1.259.396 1.162 1.089-.387 4.255-2.807 6.532-6.68 6.532-3.387 0-6.098-1.782-6.775-6.532.774-.693 2.42-1.188 3.484-1.188.775 0 1.259.198 1.356 1.089.29 1.682.87 2.573 2.033 2.573zm1.742 19.893c-.678-.198-1.549-.297-2.323-.297-1.84 0-2.904 1.187-2.904 2.77 0 1.584 1.064 2.376 2.226 2.376 1.259-.099 2.517-.792 3.001-2.474z"/></g><g><path fill="#009640" d="M183.975 161.707v-6.334c1.55-.396 3.388-.693 5.808-.693 1.356 0 2.13.594 2.13 1.781v5.246h5.227c.872 0 1.356.495 1.356 1.682v4.454h-6.583v8.61c0 2.178.775 3.068 2.71 3.068 1.065 0 2.13-.198 2.905-.495.484.693.968 1.98.968 2.97 0 1.583-2.614 3.661-6.486 3.661-4.937 0-8.035-3.167-8.035-9.303v-8.61h-2.226c-1.065 0-1.549-.594-1.549-1.88 0-1.584.194-3.168.484-4.355h3.291z"/></g><g><path fill="#009640" d="M222.407 175.068c0 6.63-4.55 10.59-10.938 10.59-6.486 0-10.939-3.96-10.939-10.59v-12.965c1.549-.396 3.388-.693 5.808-.693 1.355 0 2.13.594 2.13 1.781v12.174c0 2.375 1.065 3.86 3.097 3.86 1.936 0 3.098-1.485 3.098-3.86v-13.658h6.292c1.162 0 1.646.495 1.646 1.385v11.976z"/></g><g><path fill="#009640" d="M225.8 162c1.549-.395 3.388-.692 5.808-.692 1.355 0 2.13.594 2.13 1.781v1.683c1.161-2.078 3.388-3.662 6.292-3.662 2.42 0 4.26 1.089 4.26 2.375 0 1.683-1.55 3.464-3.389 4.553-.774-.594-1.936-.792-2.807-.792-2.226 0-3.775 1.584-4.26 4.355v13.559h-6.292c-1.161 0-1.645-.495-1.645-1.386V162z"/></g><g><path fill="#009640" d="M249.32 159.432c2.42 0 4.162-1.287 4.162-3.662 0-2.474-2.033-3.86-4.26-3.86-2.42 0-4.162 1.287-4.162 3.662 0 2.474 2.033 3.86 4.26 3.86zm3.775 18.21v-14.35c0-1.188-.775-1.782-2.13-1.782-2.42 0-4.26.297-5.808.693v16.924c0 4.552 2.904 6.433 6.002 6.433 2.904 0 4.84-1.88 4.84-3.563 0-.99-.097-1.88-.388-2.673h-1.161c-.775 0-1.259-.494-1.259-1.682z"/></g><g><path fill="#009640" d="M270.133 167.835c-1.065 0-1.549-.594-1.549-1.88 0-1.584.194-3.167.484-4.355h14.617c1.355 0 2.033.396 2.517 1.287.484.89.968 2.177 1.162 3.266l-8.81 12.47h7.745c.871 0 1.355.495 1.355 1.682v4.652H271.78c-1.356 0-2.033-.396-2.517-1.287-.484-.89-.968-2.177-1.162-3.266l9.003-12.668h-6.97z"/></g><g><path fill="#009640" d="M293.85 159.432c2.42 0 4.162-1.287 4.162-3.662 0-2.474-2.033-3.86-4.26-3.86-2.42 0-4.162 1.287-4.162 3.662 0 2.474 2.033 3.86 4.26 3.86zm3.775 18.21v-14.35c0-1.188-.775-1.782-2.13-1.782-2.42 0-4.26.297-5.808.693v16.924c0 4.552 2.904 6.433 6.002 6.433 2.904 0 4.84-1.88 4.84-3.563 0-.99-.097-1.88-.387-2.673h-1.162c-.775 0-1.259-.494-1.259-1.682z"/></g><g><path fill="#009640" d="M334.604 153.09c1.162 0 1.646.495 1.646 1.386v23.158c0 1.188.484 1.683 1.258 1.683h1.162c.29.792.387 1.682.387 2.672 0 1.683-1.936 3.563-4.84 3.563-2.226 0-4.453-1.188-5.42-3.76-1.743 2.87-4.26 3.958-6.777 3.958-5.324 0-9.39-4.355-9.39-11.283 0-8.412 5.13-13.262 10.552-13.262 2.323 0 3.969.792 5.13 2.079V153.09zm-6.292 15.241c-.774-.692-1.645-.99-2.807-.99-2.904 0-4.937 2.87-4.937 6.928 0 3.563 1.258 5.246 3.678 5.246 1.646 0 3.292-1.188 4.066-3.365z"/></g><g><path fill="#009640" d="M339.35 173.481c0-7.423 5.324-12.371 12.1-12.371 6.39 0 10.165 3.76 10.165 9.006 0 1.386-.29 2.771-.968 3.959-.678 1.287-1.646 1.682-3.679 1.682h-9.583c.58 2.772 2.71 4.157 5.711 4.157 2.033 0 3.969-.396 5.227-1.187.484.791 1.065 2.177 1.065 3.068 0 1.385-3.098 3.86-8.131 3.86-6.97 0-11.907-5.246-11.907-12.174zm14.52-2.078c.194-.396.388-.99.388-1.683 0-1.781-1.065-2.87-2.614-2.87-2.42 0-3.969 1.782-4.26 4.553z"/></g><g><path fill="#009640" d="M376.423 167.835c-1.065 0-1.549-.594-1.549-1.88 0-1.584.194-3.167.484-4.355h14.617c1.355 0 2.033.396 2.517 1.287.484.89.968 2.177 1.162 3.266l-8.81 12.47h7.745c.871 0 1.355.495 1.355 1.682v4.652h-15.876c-1.355 0-2.032-.396-2.516-1.287-.484-.89-.968-2.177-1.162-3.266l9.003-12.668h-6.97z"/></g><g><path fill="#009640" d="M400.14 159.432c2.42 0 4.162-1.287 4.162-3.662 0-2.474-2.033-3.86-4.26-3.86-2.42 0-4.162 1.287-4.162 3.662 0 2.474 2.033 3.86 4.26 3.86zm3.775 18.21v-14.35c0-1.188-.775-1.782-2.13-1.782-2.42 0-4.26.297-5.808.693v16.924c0 4.552 2.904 6.433 6.002 6.433 2.904 0 4.84-1.88 4.84-3.563 0-.99-.097-1.88-.388-2.673h-1.161c-.775 0-1.259-.494-1.259-1.682z"/></g></g><g><g><path fill="#e30613" d="M143.803 72.93H124.83v60.965h18.973z"/></g><g><path fill="#e30613" d="M110.991 118.556c-1.742 0-3.097-.495-4.162-1.484-1.065-.99-1.549-2.277-1.549-3.86V42.35l-19.07 4.652v67.694c0 6.334 1.84 11.382 5.615 15.34 3.775 3.86 8.712 5.84 14.907 5.84 3.388 0 7.067-.792 11.036-2.375v-16.627c-3.098 1.088-5.421 1.682-6.777 1.682z"/></g><g><path fill="#e30613" d="M320.088 117.468c-1.258.395-2.323.692-3.29.89-.679.1-1.26.198-1.743.198-1.743 0-3.098-.495-4.163-1.484-1.065-.99-1.549-2.277-1.549-3.86V42.35l-18.973 4.652v67.694c0 6.334 1.84 11.382 5.615 15.34 3.775 3.86 8.712 5.84 14.907 5.84 4.26 0 8.906-1.287 14.037-3.761-2.808-4.256-4.453-9.105-4.84-14.647z"/></g><g><path fill="#e30613" d="M354.066 117.962c-1.355.396-2.42.594-3.291.594-1.743 0-3.098-.495-4.163-1.484-1.065-.99-1.549-2.277-1.549-3.86V42.35l-18.973 4.652v67.694c0 6.334 1.84 11.382 5.615 15.34 3.775 3.86 8.712 5.84 14.907 5.84 4.26 0 8.906-1.287 14.036-3.761l1.065-.594c-3.388-4.058-6.002-8.511-7.647-13.559z"/></g><g><path fill="#009640" d="M135.865 42.35s-.096 0 0 0c-3.29 0-5.904 1.089-7.937 3.266-2.033 2.177-3.098 5.047-3.098 8.017v10.59h12.197c8.519 0 16.36-4.751 20.426-12.47l4.936-9.403z"/></g><g><path fill="#e30613" d="M217.084 107.373c0-12.273-2.904-21.08-8.519-27.118-5.711-6.037-11.52-9.105-19.65-9.105-7.551 0-12.778 2.276-17.522 6.73v-4.85H152.42v60.965h19.07V102.82c0-8.313 6.776-15.043 13.65-15.043 7.26 0 13.455 6.73 13.455 21.377 0 7.225-3.291 18.112-9.777 24.94h20.328c4.647-7.818 7.938-16.923 7.938-26.721z"/></g><g><path fill="#e30613" d="M280.198 122.812c-2.227 3.365-4.937 6.037-8.228 8.115-5.13 3.167-11.133 4.75-18.102 4.75-8.81 0-16.263-2.968-22.362-9.005-6.098-6.037-9.196-13.757-9.196-23.258 0-9.303 3.098-17.122 9.196-23.159 6.099-6.037 13.553-9.105 22.458-9.105 8.713 0 15.876 2.97 21.78 8.907 5.809 5.938 8.81 13.757 9.003 23.456v4.948h-43.754c.774 3.662 2.323 6.532 4.646 8.61 2.324 2.079 5.034 3.168 8.229 3.168 5.904 0 10.164-2.376 12.68-7.027zM241.38 96.486h24.588c-.871-3.068-2.42-5.542-4.55-7.126-2.13-1.682-4.646-2.474-7.454-2.474-2.807 0-5.324.89-7.744 2.573-2.42 1.683-3.969 4.058-4.84 7.027z"/></g><g><path fill="#e30613" d="M433.536 117.763v16.627c-2.517.693-4.937 1.089-7.26 1.089-6.196 0-11.132-1.98-14.908-5.84-1.161-1.187-2.13-2.573-2.904-3.958l-2.71 3.167c-4.84 4.454-11.036 6.73-18.586 6.73-8.035 0-14.908-2.97-20.62-9.006-5.71-6.037-8.518-13.757-8.518-23.258 0-9.303 2.807-17.122 8.519-23.159 5.711-6.037 12.584-9.105 20.619-9.105 7.357 0 13.455 2.177 18.295 6.532l19.264-4.652v40.479c.097 1.484.58 2.77 1.549 3.662 1.065.99 2.42 1.484 4.162 1.484.775 0 1.743-.198 3.098-.792zm-27.88-14.845c-.096-4.256-1.548-7.918-4.355-10.788-2.904-2.969-6.292-4.453-10.261-4.453-4.26 0-7.648 1.484-10.358 4.453-2.71 2.97-4.066 6.73-4.066 11.382 0 4.651 1.355 8.511 4.066 11.381 2.71 2.87 6.195 4.355 10.358 4.355 3.969 0 7.357-1.485 10.26-4.454 2.808-2.87 4.26-6.532 4.357-10.886z"/></g></g></g></g></g></g></svg>