<svg width="80" height="70" viewBox="0 0 80 70" fill="none" xmlns="http://www.w3.org/2000/svg">
<path d="M0 28C0 12.536 12.536 0 28 0H80V42C80 57.464 67.464 70 52 70H0V28Z" fill="#ED1C24"/>
<path fill-rule="evenodd" clip-rule="evenodd" d="M27.4368 16.8141C31.6341 15.9741 37.1545 15.8638 40.9293 19.6333C41.0511 19.7554 41.1476 19.9004 41.2134 20.0598C41.2791 20.2193 41.3128 20.3901 41.3125 20.5626V49.4376C41.313 49.6975 41.2362 49.9517 41.0921 50.168C40.9479 50.3843 40.7427 50.5528 40.5026 50.6524C40.2625 50.7519 39.9982 50.7779 39.7433 50.7271C39.4884 50.6762 39.2543 50.5509 39.0707 50.3668C36.8579 48.1513 33.5189 47.5869 29.962 47.9518C26.434 48.3193 22.9795 49.5714 20.9005 50.6109C20.7004 50.7112 20.478 50.7587 20.2544 50.7487C20.0308 50.7388 19.8134 50.6719 19.623 50.5543C19.4325 50.4367 19.2753 50.2724 19.1663 50.077C19.0573 49.8815 19 49.6614 19 49.4376V20.5626C19 20.319 19.0678 20.0803 19.1957 19.8731C19.3237 19.6658 19.5068 19.4983 19.7245 19.3892L20.3125 20.5626L19.7245 19.3892L19.7297 19.3866L19.7402 19.3813L19.7744 19.3656C19.9647 19.2708 20.1572 19.1806 20.3519 19.0952C22.6238 18.0778 25.0005 17.3128 27.4394 16.8141H27.4368ZM21.625 21.4026V47.4111C23.8457 46.5107 26.728 45.6471 29.6943 45.3426C32.6946 45.0328 35.9601 45.2822 38.6875 46.8126V21.1348C35.8971 18.6962 31.7811 18.6253 27.9513 19.3918C25.7774 19.8366 23.6568 20.5106 21.625 21.4026Z" fill="white"/>
<path fill-rule="evenodd" clip-rule="evenodd" d="M52.5633 16.8141C48.3685 15.9741 42.8455 15.8638 39.0708 19.6333C38.9489 19.7554 38.8524 19.9004 38.7866 20.0598C38.7209 20.2193 38.6872 20.3901 38.6875 20.5626V49.4376C38.687 49.6975 38.7638 49.9517 38.9079 50.168C39.0521 50.3843 39.2573 50.5528 39.4974 50.6524C39.7375 50.7519 40.0018 50.7779 40.2567 50.7271C40.5116 50.6762 40.7457 50.5509 40.9293 50.3668C43.1421 48.1513 46.4811 47.5869 50.038 47.9518C53.566 48.3193 57.0205 49.5714 59.0995 50.6109C59.2996 50.7112 59.522 50.7587 59.7456 50.7487C59.9692 50.7388 60.1866 50.6719 60.377 50.5543C60.5675 50.4367 60.7247 50.2724 60.8337 50.077C60.9427 49.8815 61 49.6614 61 49.4376V20.5626C61 20.319 60.9322 20.0803 60.8043 19.8731C60.6763 19.6658 60.4932 19.4983 60.2755 19.3892L59.6875 20.5626L60.2755 19.3892L60.2703 19.3866L60.2598 19.3813L60.2256 19.3656L60.1023 19.3052C59.4136 18.9837 58.7141 18.686 58.0049 18.4127C56.2387 17.7293 54.4185 17.1946 52.5633 16.8141ZM58.375 21.4026V47.4111C56.1543 46.5107 53.272 45.6471 50.3058 45.3426C47.3054 45.0328 44.0399 45.2822 41.3125 46.8126V21.1348C44.1029 18.6962 48.2189 18.6253 52.0488 19.3918C54.2227 19.8366 56.3433 20.5106 58.375 21.4026Z" fill="white"/>
</svg>
