<svg xmlns="http://www.w3.org/2000/svg" width="199" height="199" viewBox="0 0 199 199"><defs><clipPath id="6bxra"><path fill="#000" d="M199 99.5c0 54.952-44.548 99.5-99.5 99.5S0 154.452 0 99.5 44.548 0 99.5 0 199 44.548 199 99.5z"/></clipPath></defs><g><g><path fill="#fff" d="M199 99.5c0 54.952-44.548 99.5-99.5 99.5S0 154.452 0 99.5 44.548 0 99.5 0 199 44.548 199 99.5z"/><path fill="none" stroke="#ed1c24" stroke-miterlimit="20" stroke-width="6" d="M199 99.5c0 54.952-44.548 99.5-99.5 99.5S0 154.452 0 99.5 44.548 0 99.5 0 199 44.548 199 99.5z" clip-path="url(&quot;#6bxra&quot;)"/></g><g><g/><g><g><g><path fill="#ed1c24" d="M120.912 121.38a1.312 1.312 0 1 0 0 2.625 1.312 1.312 0 0 0 0-2.625z"/></g></g></g><g><g><g><path fill="#ed1c24" d="M124.844 71.713c8.474 15.65 8.659 15.327 8.659 16.08v2.624c0 2.25-1.336 4.39-3.411 5.592v35.342c0 .725-.588 1.312-1.312 1.312H71.053a1.312 1.312 0 0 1-1.312-1.312V96.009c-2.096-1.203-3.411-3.318-3.411-5.592v-2.625c0-.744.101-.275 8.659-16.08v-2.286a3.94 3.94 0 0 1 3.936-3.936h41.983a3.94 3.94 0 0 1 3.936 3.936zm-2.088 1.649h-5.276l4.374 13.12h8.118zm-11.032 17.056a3.94 3.94 0 0 0 3.936 3.935 3.94 3.94 0 0 0 3.936-3.935v-1.313h-7.872zm7.364-3.936l-4.373-13.12h-5.378l2.187 13.12zM77.613 70.738h44.607v-1.312c0-.724-.589-1.312-1.312-1.312H78.925c-.723 0-1.312.588-1.312 1.312zm23.615 18.368v1.312a3.94 3.94 0 0 0 3.936 3.935 3.94 3.94 0 0 0 3.936-3.935v-1.313zm7.636-2.624l-2.187-13.12h-5.449v13.12zm-10.26 0v-13.12h-5.448l-2.187 13.12zm-7.871 2.624v1.312a3.94 3.94 0 0 0 3.936 3.935 3.94 3.94 0 0 0 3.936-3.935v-1.313zm-2.424-2.624l2.187-13.12h-5.378l-4.373 13.12zm-8.072 2.624v1.312a3.94 3.94 0 0 0 3.936 3.935 3.94 3.94 0 0 0 3.936-3.935v-1.313zM69.86 86.482h8.118l4.374-13.12h-5.276zm-.907 3.936c0 1.473 1.051 2.91 2.615 3.576.551.235 1.143.36 1.714.36 2.266 0 4.33-1.877 4.33-3.936v-1.313h-8.66zm24.403 28.338h-13.12v11.283h13.12zm0-13.907h-13.12v11.283h13.12zm34.11-7.935a6.786 6.786 0 0 1-.917.063c-1.727 0-3.473-.684-4.789-1.877a7.098 7.098 0 0 1-.788-.84 6.554 6.554 0 0 1-5.313 2.717 6.553 6.553 0 0 1-5.248-2.628 6.554 6.554 0 0 1-10.496 0 6.553 6.553 0 0 1-10.495 0 6.553 6.553 0 0 1-5.248 2.628 6.554 6.554 0 0 1-5.313-2.718 7.09 7.09 0 0 1-.788.841c-1.316 1.193-3.062 1.877-4.789 1.877-.307 0-.614-.023-.918-.064v33.126h5.248v-26.502c0-.724.588-1.312 1.312-1.312h15.744c.724 0 1.312.588 1.312 1.312v26.502h31.487zm3.412-7.808h-8.659v1.312c0 2.06 2.064 3.935 4.33 3.935.542 0 1.086-.106 1.617-.318 1.622-.649 2.712-2.102 2.712-3.617z"/></g></g></g><g><g><g><path fill="#ed1c24" d="M123.534 116.137a1.312 1.312 0 0 1 0 2.624h-20.992a1.312 1.312 0 0 1 0-2.624h1.312v-12.595c0-.725.587-1.312 1.312-1.312h15.744c.724 0 1.312.587 1.312 1.312v12.595zm-3.936-11.283h-13.12v11.283h13.12z"/></g></g></g><g><g><g><path fill="#ed1c24" d="M115.668 121.38h-10.496a1.312 1.312 0 0 0 0 2.624h10.496a1.312 1.312 0 0 0 0-2.624z"/></g></g></g></g></g></svg>