<svg xmlns="http://www.w3.org/2000/svg" width="199" height="199" viewBox="0 0 199 199"><defs><clipPath id="pt9ja"><path fill="#fff" d="M199 99.5c0 54.952-44.548 99.5-99.5 99.5S0 154.452 0 99.5 44.548 0 99.5 0 199 44.548 199 99.5z"/></clipPath></defs><g><g><path fill="#fff" d="M199 99.5c0 54.952-44.548 99.5-99.5 99.5S0 154.452 0 99.5 44.548 0 99.5 0 199 44.548 199 99.5z"/><path fill="none" stroke="#ed1c24" stroke-miterlimit="20" stroke-width="6" d="M199 99.5c0 54.952-44.548 99.5-99.5 99.5S0 154.452 0 99.5 44.548 0 99.5 0 199 44.548 199 99.5z" clip-path="url(&quot;#pt9ja&quot;)"/></g><g><g/><g><path fill="#ed1c24" d="M105.221 85.43a1.312 1.312 0 1 0 .002 2.624 1.312 1.312 0 0 0-.002-2.624z"/></g><g><path fill="#ed1c24" d="M97.27 111.05a1.314 1.314 0 0 0 0-1.856 1.314 1.314 0 0 0-1.856 0 1.315 1.315 0 0 0 0 1.856 1.314 1.314 0 0 0 1.855 0z"/></g><g><path fill="#ed1c24" d="M66.78 117.44a1.311 1.311 0 0 1 .003-1.85l6.24-6.258a3.918 3.918 0 0 1 3.507-1.087c2.96-5.471 8.477-8.386 14.79-8.386 2.28 0 4.487.44 6.569 1.311h14.626c1.61 0 3.1.75 4.078 1.953l7.74-7.955a5.26 5.26 0 0 1 7.36-.585 5.253 5.253 0 0 1 .623 7.394c-12.588 15.045-11.804 14.122-11.896 14.21a11.743 11.743 0 0 1-8.233 3.346H94.75a3.912 3.912 0 0 0-2.73 1.103l-1.369 1.32a3.963 3.963 0 0 1-.933 4.07l-6.36 6.264a1.311 1.311 0 0 1-1.85-.01zm12.027-7.89l10.276 10.274 1.114-1.075a6.52 6.52 0 0 1 4.553-1.84h17.437c2.384 0 4.64-.907 6.357-2.556l11.764-14.064a2.629 2.629 0 0 0-.307-3.702 2.632 2.632 0 0 0-3.698.313c-.045.053-1.101 1.135-8.588 8.83a5.252 5.252 0 0 1-5.2 5.932h-10.702a1.311 1.311 0 1 1 0-2.622h10.702a2.626 2.626 0 0 0 2.623-2.623 2.63 2.63 0 0 0-2.623-2.623H97.62c-.18 0-.36-.038-.526-.11a14.317 14.317 0 0 0-5.774-1.202c-5.605 0-10.111 2.562-12.513 7.067zm-9.246 6.968l12.888 12.986 5.421-5.34c.45-.45.504-1.185.12-1.702-.069-.093-11.287-11.339-11.487-11.46a1.309 1.309 0 0 0-1.624.184z"/></g><g><path fill="#ed1c24" d="M86.865 93.296a3.94 3.94 0 0 1-3.935-3.935V69.425a3.94 3.94 0 0 1 3.935-3.935h31.479a3.94 3.94 0 0 1 3.934 3.935V89.36a3.94 3.94 0 0 1-3.935 3.935zm32.79-19.936H85.553v2.623h34.102zm-1.311 17.313c.723 0 1.311-.589 1.311-1.312V78.606H85.553v10.755c0 .723.589 1.312 1.312 1.312zm-31.48-22.56c-.722 0-1.31.589-1.31 1.312v1.311h34.101v-1.311c0-.723-.588-1.312-1.312-1.312z"/></g><g><path fill="#ed1c24" d="M115.718 85.43h-5.247a1.312 1.312 0 0 0 0 2.623h5.247a1.312 1.312 0 1 0 0-2.623z"/></g></g></g></svg>