<svg xmlns="http://www.w3.org/2000/svg" width="199" height="199" viewBox="0 0 199 199"><defs><clipPath id="k9sca"><path fill="#fff" d="M199 99.5c0 54.952-44.548 99.5-99.5 99.5S0 154.452 0 99.5 44.548 0 99.5 0 199 44.548 199 99.5z"/></clipPath></defs><g><g><path fill="#fff" d="M199 99.5c0 54.952-44.548 99.5-99.5 99.5S0 154.452 0 99.5 44.548 0 99.5 0 199 44.548 199 99.5z"/><path fill="none" stroke="#ed1c24" stroke-miterlimit="20" stroke-width="6" d="M199 99.5c0 54.952-44.548 99.5-99.5 99.5S0 154.452 0 99.5 44.548 0 99.5 0 199 44.548 199 99.5z" clip-path="url(&quot;#k9sca&quot;)"/></g><g><g/><g><g><path fill="#ed1c24" d="M139.094 84.705l-17.189 29.772v21.96c0 .863-.7 1.563-1.563 1.563h-58.75c-.864 0-1.562-.7-1.562-1.563V59.563c0-.862.698-1.562 1.563-1.562h58.75c.862 0 1.562.7 1.562 1.563v6.25a1.563 1.563 0 0 1-3.125 0v-4.688H63.155v73.75h37.09l1.174-10.898c.024-.218.09-.427.2-.614l17.161-29.724V79.875a1.562 1.562 0 1 1 3.125 0v8.353l5.822-10.086a6.57 6.57 0 0 1 8.964-2.401 6.57 6.57 0 0 1 2.403 8.964zM103.58 133.09l5.194-3.794-4.505-2.6zm15.2-13.2l-5.794 10.034c-.11.188-.256.352-.431.48l-6.119 4.47h12.344zm15.15-32.493l-5.953-3.437-22.87 39.61 5.954 3.438zm2.456-4.256a3.44 3.44 0 0 0-1.258-4.695 3.442 3.442 0 0 0-4.695 1.258l-.894 1.55 5.954 3.437z"/></g><g><path fill="#ed1c24" d="M120.343 71.28c-.413 0-.815.167-1.105.458-.29.29-.458.694-.458 1.104 0 .413.167.815.458 1.105.29.29.694.458 1.104.458.411 0 .815-.167 1.105-.458.29-.29.458-.694.458-1.104 0-.411-.167-.815-.458-1.105a1.572 1.572 0 0 0-1.104-.458z"/></g><g><path fill="#ed1c24" d="M106.745 74.56H75.182a1.562 1.562 0 1 0 0 3.125h31.563a1.563 1.563 0 0 0 0-3.125z"/></g><g><path fill="#ed1c24" d="M106.745 83.31H75.182a1.562 1.562 0 1 0 0 3.125h31.563a1.563 1.563 0 0 0 0-3.125z"/></g><g><path fill="#ed1c24" d="M106.744 92.06H95.143a1.562 1.562 0 1 0 0 3.125h11.601a1.563 1.563 0 0 0 0-3.125z"/></g><g><path fill="#ed1c24" d="M108.308 102.373c0-.863-.7-1.563-1.563-1.563H75.182a1.562 1.562 0 1 0 0 3.125h31.563c.863 0 1.563-.7 1.563-1.563z"/></g><g><path fill="#ed1c24" d="M101.59 111.123c0-.863-.7-1.563-1.562-1.563h-9.766a1.562 1.562 0 1 0 0 3.125h9.766c.863 0 1.563-.7 1.563-1.563z"/></g><g><path fill="#ed1c24" d="M75.183 121.435h13.75a1.563 1.563 0 0 0 0-3.125h-13.75a1.562 1.562 0 1 0 0 3.125z"/></g><g><path fill="#ed1c24" d="M75.183 95.185h10.415a1.562 1.562 0 1 0 0-3.125H75.183a1.562 1.562 0 1 0 0 3.125z"/></g><g><path fill="#ed1c24" d="M75.183 112.685h8.046a1.563 1.563 0 0 0 0-3.125h-8.046a1.562 1.562 0 1 0 0 3.125z"/></g></g></g></g></svg>