<svg width="208" height="90" viewBox="0 0 208 90" fill="none" xmlns="http://www.w3.org/2000/svg">
<path d="M0 44.7216V90H164.086C188.366 90 208 69.9588 208 45.2784V0H43.9142C19.6794 0 0 20.0412 0 44.7216Z" fill="white"/>
<path d="M57.2053 73.167C56.7427 73.167 56.5115 73.0103 56.4344 72.6969L55.9718 71.2474H52.2714L51.6932 73.167H48.9179C48.4939 73.167 48.3012 72.932 48.4168 72.5402L52.3871 61.3361C53.0809 61.0227 53.8518 60.866 54.6227 60.866C55.4322 60.866 55.702 61.0618 55.9718 61.767L60.0191 73.167H57.2053ZM53.0423 68.701H55.2394L54.1602 65.0577L53.0423 68.701Z" fill="#009640"/>
<path d="M60.2505 60.5916C60.8672 60.4349 61.5996 60.3174 62.5632 60.3174C63.1029 60.3174 63.4112 60.5524 63.4112 61.0225V69.5627C63.4112 70.4246 63.7196 70.7772 64.3363 70.7772C64.6832 70.7772 65.0687 70.6988 65.3385 70.5813C65.5698 70.8947 65.724 71.4823 65.724 71.9524C65.724 72.54 64.7218 73.2844 63.2956 73.2844C61.4454 73.2844 60.2505 72.0308 60.2505 69.6019V60.5916Z" fill="#009640"/>
<path d="M66.8801 66.468C66.6488 66.1155 66.5332 65.6845 66.5332 65.332C66.5332 64.5876 68.2292 63.6474 70.2336 63.6474C72.8547 63.6474 74.2038 64.9402 74.2038 67.4474V70.1505C74.2038 70.6206 74.3965 70.8165 74.7049 70.8165H75.1674C75.2831 71.1299 75.3216 71.4825 75.3216 71.8742C75.3216 72.5402 74.5507 73.2845 73.3943 73.2845C72.6234 73.2845 71.8525 72.8928 71.3899 72.1484C70.8888 72.932 70.0408 73.4021 69.0001 73.4021C67.0728 73.4021 65.8008 72.0701 65.8008 70.3464C65.8008 68.5052 67.227 67.3691 69.3085 67.3691C69.9637 67.3691 70.6576 67.4866 70.9659 67.6433V67.134C70.9659 66.4289 70.5034 65.9196 69.2699 65.9196C68.5375 65.8804 67.651 66.1155 66.8801 66.468ZM70.3877 61.3753C70.9274 61.3753 71.1587 61.0227 71.1587 59.965H72.5463C72.9703 59.965 73.0474 60.1217 73.0088 60.3959C72.8547 62.0804 71.891 62.9814 70.3492 62.9814C69.0001 62.9814 67.9208 62.2763 67.651 60.3959C67.9593 60.1217 68.6146 59.9258 69.0386 59.9258C69.347 59.9258 69.5397 60.0041 69.5783 60.3567C69.6939 61.0227 69.9252 61.3753 70.3877 61.3753ZM71.0816 70.1897V69.2495C70.8117 69.1711 70.4648 69.132 70.1565 69.132C69.4241 69.132 69.0001 69.6021 69.0001 70.2289C69.0001 70.8557 69.4241 71.1691 69.8866 71.1691C70.3877 71.1299 70.8888 70.8557 71.0816 70.1897Z" fill="#009640"/>
<path d="M76.5165 63.8825V61.3753C77.1332 61.2186 77.8656 61.1011 78.8292 61.1011C79.3689 61.1011 79.6772 61.3361 79.6772 61.8062V63.8825H81.7587C82.1056 63.8825 82.2984 64.0784 82.2984 64.5485V66.3114H79.6772V69.7196C79.6772 70.5815 79.9856 70.9341 80.7565 70.9341C81.1805 70.9341 81.6045 70.8557 81.9129 70.7382C82.1056 71.0124 82.2984 71.5217 82.2984 71.9134C82.2984 72.5402 81.2576 73.3629 79.7158 73.3629C77.7499 73.3629 76.5165 72.1093 76.5165 69.6805V66.2722H75.6299C75.2059 66.2722 75.0132 66.0372 75.0132 65.5279C75.0132 64.9011 75.0903 64.2743 75.2059 63.8042H76.5165V63.8825Z" fill="#009640"/>
<path d="M91.8197 69.1711C91.8197 71.7958 90.0081 73.3628 87.4641 73.3628C84.8815 73.3628 83.1084 71.7958 83.1084 69.1711V64.0391C83.7251 63.8824 84.4575 63.7649 85.4211 63.7649C85.9608 63.7649 86.2692 63.9999 86.2692 64.47V69.2886C86.2692 70.2288 86.6932 70.8164 87.5026 70.8164C88.2735 70.8164 88.7361 70.2288 88.7361 69.2886V63.8824H91.2416C91.7041 63.8824 91.8968 64.0783 91.8968 64.4309V69.1711H91.8197Z" fill="#009640"/>
<path d="M93.1685 64C93.7852 63.8433 94.5176 63.7258 95.4812 63.7258C96.0208 63.7258 96.3292 63.9609 96.3292 64.431V65.0969C96.7918 64.2743 97.6783 63.6475 98.8347 63.6475C99.7983 63.6475 100.531 64.0784 100.531 64.5877C100.531 65.2536 99.914 65.9588 99.1816 66.3897C98.8732 66.1547 98.4107 66.0763 98.0638 66.0763C97.1772 66.0763 96.5605 66.7031 96.3678 67.8V73.167H93.8623C93.3997 73.167 93.207 72.9712 93.207 72.6186V64H93.1685Z" fill="#009640"/>
<path d="M100.839 61.4536C100.839 60.5134 101.533 60.0042 102.496 60.0042C103.383 60.0042 104.192 60.5526 104.192 61.532C104.192 62.4722 103.499 62.9815 102.535 62.9815C101.648 62.9815 100.839 62.433 100.839 61.4536ZM104.077 70.1897C104.077 70.6598 104.269 70.8557 104.578 70.8557H105.04C105.156 71.1691 105.195 71.5217 105.195 71.9134C105.195 72.5794 104.424 73.3237 103.267 73.3237C102.034 73.3237 100.877 72.5794 100.877 70.7774V64.0784C101.494 63.9217 102.227 63.8042 103.19 63.8042C103.73 63.8042 104.038 64.0392 104.038 64.5093V70.1897H104.077Z" fill="#009640"/>
<path d="M110.823 66.3113C110.399 66.3113 110.206 66.0763 110.206 65.567C110.206 64.9402 110.283 64.3134 110.399 63.8433H116.219C116.759 63.8433 117.029 64 117.221 64.3525C117.414 64.7051 117.607 65.2144 117.684 65.6453L114.176 70.5814H117.26C117.607 70.5814 117.799 70.7773 117.799 71.2474V73.0886H111.478C110.938 73.0886 110.668 72.9319 110.476 72.5794C110.283 72.2268 110.09 71.7175 110.013 71.2866L113.598 66.2721H110.823V66.3113Z" fill="#009640"/>
<path d="M118.57 61.4536C118.57 60.5134 119.264 60.0042 120.227 60.0042C121.114 60.0042 121.923 60.5526 121.923 61.532C121.923 62.4722 121.23 62.9815 120.266 62.9815C119.379 62.9815 118.57 62.433 118.57 61.4536ZM121.808 70.1897C121.808 70.6598 122 70.8557 122.309 70.8557H122.771C122.887 71.1691 122.926 71.5217 122.926 71.9134C122.926 72.5794 122.155 73.3237 120.998 73.3237C119.765 73.3237 118.608 72.5794 118.608 70.7774V64.0784C119.225 63.9217 119.957 63.8042 120.921 63.8042C121.461 63.8042 121.769 64.0392 121.769 64.5093V70.1897H121.808Z" fill="#009640"/>
<path d="M136.494 60.4741C136.956 60.4741 137.149 60.67 137.149 61.0226V70.1896C137.149 70.6597 137.342 70.8556 137.65 70.8556H138.113C138.228 71.169 138.267 71.5215 138.267 71.9133C138.267 72.5793 137.496 73.3236 136.339 73.3236C135.453 73.3236 134.566 72.8535 134.181 71.835C133.487 72.971 132.485 73.402 131.483 73.402C129.363 73.402 127.744 71.6783 127.744 68.936C127.744 65.6061 129.787 63.6865 131.945 63.6865C132.87 63.6865 133.526 63.9999 133.988 64.5092V60.4741H136.494ZM133.988 66.5071C133.68 66.2329 133.333 66.1154 132.87 66.1154C131.714 66.1154 130.904 67.2514 130.904 68.8576C130.904 70.2679 131.406 70.9339 132.369 70.9339C133.024 70.9339 133.68 70.4638 133.988 69.602V66.5071Z" fill="#009640"/>
<path d="M138.383 68.5444C138.383 65.6062 140.503 63.6475 143.201 63.6475C145.745 63.6475 147.248 65.1361 147.248 67.2124C147.248 67.7609 147.133 68.3093 146.863 68.7794C146.593 69.2887 146.208 69.4454 145.398 69.4454H141.582C141.813 70.5423 142.661 71.0908 143.856 71.0908C144.666 71.0908 145.437 70.9341 145.938 70.6207C146.131 70.9341 146.362 71.4825 146.362 71.8351C146.362 72.3836 145.128 73.3629 143.124 73.3629C140.349 73.3629 138.383 71.2867 138.383 68.5444ZM141.582 67.7217H144.165C144.242 67.565 144.319 67.3299 144.319 67.0557C144.319 66.3506 143.895 65.9196 143.278 65.9196C142.314 65.9196 141.698 66.6248 141.582 67.7217Z" fill="#009640"/>
<path d="M153.146 66.3113C152.722 66.3113 152.529 66.0763 152.529 65.567C152.529 64.9402 152.606 64.3134 152.722 63.8433H158.542C159.082 63.8433 159.352 64 159.544 64.3525C159.737 64.7051 159.93 65.2144 160.007 65.6453L156.499 70.5814H159.583C159.93 70.5814 160.123 70.7773 160.123 71.2474V73.0886H153.801C153.262 73.0886 152.992 72.9319 152.799 72.5794C152.606 72.2268 152.414 71.7175 152.336 71.2866L155.921 66.2721H153.146V66.3113Z" fill="#009640"/>
<path d="M160.894 61.4536C160.894 60.5134 161.588 60.0042 162.552 60.0042C163.438 60.0042 164.248 60.5526 164.248 61.532C164.248 62.4722 163.554 62.9815 162.59 62.9815C161.704 62.9815 160.894 62.433 160.894 61.4536ZM164.132 70.1897C164.132 70.6598 164.325 70.8557 164.633 70.8557H165.096C165.211 71.1691 165.25 71.5217 165.25 71.9134C165.25 72.5794 164.479 73.3237 163.322 73.3237C162.089 73.3237 160.933 72.5794 160.933 70.7774V64.0784C161.549 63.9217 162.282 63.8042 163.245 63.8042C163.785 63.8042 164.093 64.0392 164.093 64.5093V70.1897H164.132Z" fill="#009640"/>
<path d="M60.5198 28.7424H52.9648V52.8744H60.5198V28.7424Z" fill="#E30613"/>
<path d="M47.4532 46.8022C46.7593 46.8022 46.2197 46.6063 45.7957 46.2145C45.3717 45.8228 45.179 45.3135 45.179 44.6867V16.6372L37.5854 18.4784V45.2743C37.5854 47.7815 38.3178 49.7795 39.8211 51.3465C41.3244 52.8743 43.2902 53.6578 45.7572 53.6578C47.1063 53.6578 48.571 53.3444 50.1514 52.7176V46.1362C48.9179 46.5671 47.9928 46.8022 47.4532 46.8022Z" fill="#E30613"/>
<path d="M130.712 46.3712C130.211 46.5279 129.787 46.6455 129.401 46.7238C129.132 46.763 128.9 46.8022 128.708 46.8022C128.014 46.8022 127.474 46.6063 127.05 46.2145C126.626 45.8228 126.433 45.3135 126.433 44.6867V16.6372L118.878 18.4784V45.2743C118.878 47.7815 119.611 49.7795 121.114 51.3465C122.617 52.8743 124.583 53.6578 127.05 53.6578C128.746 53.6578 130.596 53.1486 132.639 52.1692C131.521 50.4846 130.866 48.5651 130.712 46.3712Z" fill="#E30613"/>
<path d="M144.241 46.5671C143.702 46.7238 143.278 46.8022 142.931 46.8022C142.237 46.8022 141.697 46.6063 141.273 46.2145C140.849 45.8228 140.657 45.3135 140.657 44.6867V16.6372L133.102 18.4784V45.2743C133.102 47.7815 133.834 49.7795 135.337 51.3465C136.84 52.8743 138.806 53.6578 141.273 53.6578C142.969 53.6578 144.819 53.1486 146.862 52.1692L147.286 51.9341C145.937 50.3279 144.897 48.5651 144.241 46.5671Z" fill="#E30613"/>
<path d="M57.3591 16.6372C57.3591 16.6372 57.3205 16.6372 57.3591 16.6372C56.0485 16.6372 55.0078 17.0681 54.1983 17.93C53.3888 18.7918 52.9648 19.9279 52.9648 21.1032V25.2949H57.8216C61.2136 25.2949 64.3359 23.4145 65.9548 20.3589L67.9206 16.6372H57.3591Z" fill="#009640"/>
<path d="M89.6997 42.3753C89.6997 37.5175 88.5434 34.0309 86.3077 31.6412C84.0335 29.2515 81.7208 28.0371 78.4829 28.0371C75.4764 28.0371 73.3949 28.9381 71.5061 30.701V28.7814H63.9512V52.9134H71.5447C71.5447 52.9134 71.5447 40.534 71.5447 40.5732C71.5447 37.2825 74.2429 34.6186 76.9796 34.6186C79.8706 34.6186 82.3375 37.2825 82.3375 43.0804C82.3375 45.9402 81.0269 50.2495 78.4444 52.9526H86.539C88.3892 49.8577 89.6997 46.2536 89.6997 42.3753Z" fill="#E30613"/>
<path d="M109.396 44.6866C108.393 46.5278 106.697 47.4681 104.346 47.4681C103.074 47.4681 101.995 47.0371 101.07 46.2144C100.145 45.3918 99.528 44.2557 99.2196 42.8062H116.642V40.8474C116.565 37.0083 115.37 33.9134 113.058 31.5629C110.706 29.2124 107.854 28.0371 104.385 28.0371C100.839 28.0371 97.8705 29.2515 95.4421 31.6412C93.0137 34.0309 91.7803 37.1258 91.7803 40.8083C91.7803 44.5691 93.0137 47.6248 95.4421 50.0144C97.8705 52.4041 100.839 53.5794 104.346 53.5794C107.121 53.5794 109.511 52.9526 111.554 51.699C112.865 50.8763 113.944 49.8186 114.831 48.4866L109.396 44.6866ZM101.301 35.2845C102.265 34.6186 103.267 34.266 104.385 34.266C105.503 34.266 106.505 34.5794 107.353 35.2454C108.201 35.8722 108.817 36.8516 109.164 38.066H99.3738C99.7207 36.8907 100.337 35.9505 101.301 35.2845Z" fill="#E30613"/>
<path d="M174.654 46.8022C173.96 46.8022 173.421 46.6063 172.997 46.2146C172.611 45.862 172.418 45.3527 172.38 44.7651V28.7424L164.709 30.5836C162.782 28.8599 160.354 27.998 157.424 27.998C154.225 27.998 151.488 29.2125 149.214 31.6022C146.94 33.9919 145.822 37.0867 145.822 40.7692C145.822 44.53 146.94 47.5857 149.214 49.9754C151.488 52.3651 154.225 53.5403 157.424 53.5403C160.431 53.5403 162.898 52.6393 164.825 50.8764L165.904 49.6228C166.213 50.1713 166.598 50.7197 167.061 51.1898C168.564 52.7176 170.53 53.5012 172.997 53.5012C173.922 53.5012 174.885 53.3445 175.888 53.0702V46.4888C175.348 46.7238 174.962 46.8022 174.654 46.8022ZM164.786 41.0042C164.748 42.728 164.17 44.1774 163.052 45.3135C161.895 46.4888 160.546 47.0764 158.966 47.0764C157.308 47.0764 155.921 46.4888 154.842 45.3527C153.762 44.2166 153.223 42.6888 153.223 40.8475C153.223 39.0063 153.762 37.5176 154.842 36.3424C155.921 35.1671 157.27 34.5795 158.966 34.5795C160.546 34.5795 161.895 35.1671 163.052 36.3424C164.17 37.4785 164.748 38.928 164.786 40.6125V41.0042Z" fill="#E30613"/>
</svg>
